<svg xmlns="http://www.w3.org/2000/svg" version="1.1" xmlns:xlink="http://www.w3.org/1999/xlink" xmlns:svgjs="http://svgjs.dev/svgjs" width="786" height="400" preserveAspectRatio="none" viewBox="0 0 786 400"><g mask="url(&quot;#SvgjsMask1012&quot;)" fill="none"><path d="M367.22 432.18C439.2 402.06 388.69 192.2 548.99 178.47 709.29 164.74 819.02 91.09 912.53 90.47" stroke="rgba(254, 103, 33, 1)" stroke-width="2"></path><path d="M118.12 414.03C229.61 404.26 303.72 175.32 496.42 174.64 689.12 173.96 777.39 265.98 874.72 266.64" stroke="rgba(254, 103, 33, 1)" stroke-width="2"></path><path d="M116.74 472.93C202.27 453.92 233.27 231.83 367.88 228.48 502.49 225.13 493.46 278.48 619.03 278.48 744.6 278.48 806.15 228.72 870.17 228.48" stroke="rgba(254, 103, 33, 1)" stroke-width="2"></path><path d="M371.94 418.36C426.53 412.11 401.23 298.34 551.16 291.1 701.09 283.86 813.42 153.55 909.59 151.1" stroke="rgba(254, 103, 33, 1)" stroke-width="2"></path><path d="M348.74 429.09C442.93 376.66 441.81 67.12 568.54 58.11 695.27 49.1 726.3 170.62 788.34 174.11" stroke="rgba(254, 103, 33, 1)" stroke-width="2"></path></g><defs><mask id="SvgjsMask1012"><rect width="786" height="400" fill="#ffffff"></rect></mask></defs></svg>