<svg xmlns="http://www.w3.org/2000/svg" version="1.1" xmlns:xlink="http://www.w3.org/1999/xlink" xmlns:svgjs="http://svgjs.dev/svgjs" width="1440" height="560" preserveAspectRatio="none" viewBox="0 0 1440 560"><g mask="url(&quot;#SvgjsMask1008&quot;)" fill="none"><path d="M323.57 654.68C474.47 652.58 590.55 481.99 899.6 474.13 1208.66 466.27 1316.86 211.84 1475.64 205.33" stroke="rgba(254, 103, 33, 1)" stroke-width="2"></path><path d="M158 646.12C284.93 636.87 372.67 389.8 597.21 388.76 821.75 387.72 816.81 458.76 1036.41 458.76 1256.02 458.76 1364.43 388.98 1475.62 388.76" stroke="rgba(254, 103, 33, 1)" stroke-width="2"></path><path d="M414.4 647.32C547.61 625.52 610.29 304.55 828.57 300.94 1046.84 297.33 1035.65 370.94 1242.73 370.94 1449.82 370.94 1551.89 301.19 1656.9 300.94" stroke="rgba(254, 103, 33, 1)" stroke-width="2"></path><path d="M796.13 619.12C914.94 527.42 840.48 82.86 1049.07 74.66 1257.65 66.46 1419.35 267.27 1554.94 270.66" stroke="rgba(254, 103, 33, 1)" stroke-width="2"></path><path d="M654.8 567.51C766.74 551.03 713.87 299.22 1008.96 285.74 1304.05 272.26 1530.72 53.59 1717.28 50.54" stroke="rgba(254, 103, 33, 1)" stroke-width="2"></path></g><defs><mask id="SvgjsMask1008"><rect width="1440" height="560" fill="#ffffff"></rect></mask></defs></svg>